<svg width="311" height="80" viewBox="0 0 311 80" fill="none" xmlns="http://www.w3.org/2000/svg">
<path d="M93.52 28.574C93.82 28.574 94.072 28.682 94.276 28.898L96.418 31.184C95.362 32.528 94.048 33.548 92.476 34.244C90.916 34.94 89.056 35.288 86.896 35.288C84.94 35.288 83.182 34.958 81.622 34.298C80.062 33.626 78.736 32.696 77.644 31.508C76.552 30.32 75.712 28.91 75.124 27.278C74.536 25.646 74.242 23.864 74.242 21.932C74.242 20.636 74.38 19.406 74.656 18.242C74.944 17.066 75.358 15.986 75.898 15.002C76.438 14.018 77.086 13.13 77.842 12.338C78.61 11.546 79.474 10.874 80.434 10.322C81.394 9.758 82.438 9.332 83.566 9.044C84.706 8.744 85.918 8.594 87.202 8.594C88.162 8.594 89.068 8.678 89.92 8.846C90.784 9.014 91.588 9.248 92.332 9.548C93.076 9.848 93.76 10.214 94.384 10.646C95.02 11.066 95.59 11.528 96.094 12.032L94.276 14.516C94.168 14.672 94.03 14.81 93.862 14.93C93.694 15.05 93.466 15.11 93.178 15.11C92.89 15.11 92.596 15.008 92.296 14.804C92.008 14.6 91.648 14.372 91.216 14.12C90.796 13.868 90.262 13.64 89.614 13.436C88.978 13.232 88.168 13.13 87.184 13.13C86.092 13.13 85.09 13.328 84.178 13.724C83.266 14.12 82.48 14.696 81.82 15.452C81.172 16.196 80.668 17.114 80.308 18.206C79.948 19.298 79.768 20.54 79.768 21.932C79.768 23.336 79.96 24.59 80.344 25.694C80.74 26.786 81.274 27.71 81.946 28.466C82.63 29.222 83.422 29.798 84.322 30.194C85.234 30.578 86.206 30.77 87.238 30.77C87.85 30.77 88.402 30.74 88.894 30.68C89.398 30.62 89.86 30.518 90.28 30.374C90.712 30.23 91.114 30.044 91.486 29.816C91.87 29.588 92.254 29.3 92.638 28.952C92.77 28.844 92.908 28.754 93.052 28.682C93.196 28.61 93.352 28.574 93.52 28.574ZM117.7 10.862C117.7 11.138 117.652 11.42 117.556 11.708C117.472 11.984 117.346 12.242 117.178 12.482L104.29 30.77H117.34V35H97.3605V32.894C97.3605 32.642 97.4025 32.396 97.4865 32.156C97.5705 31.904 97.6905 31.676 97.8465 31.472L110.77 13.112H98.2785V8.882H117.7V10.862ZM139.82 13.238H132.188V35H126.77V13.238H119.138V8.882H139.82V13.238ZM148.496 13.112V19.826H157.208V23.912H148.496V30.77H159.692V35H143.06V8.882H159.692V13.112H148.496ZM171.904 21.248C172.78 21.248 173.536 21.14 174.172 20.924C174.808 20.696 175.33 20.39 175.738 20.006C176.146 19.61 176.446 19.148 176.638 18.62C176.83 18.092 176.926 17.516 176.926 16.892C176.926 15.656 176.512 14.696 175.684 14.012C174.868 13.328 173.62 12.986 171.94 12.986H169.132V21.248H171.904ZM184.558 35H179.68C178.768 35 178.108 34.652 177.7 33.956L172.732 25.946C172.528 25.634 172.3 25.406 172.048 25.262C171.808 25.118 171.448 25.046 170.968 25.046H169.132V35H163.732V8.882H171.94C173.764 8.882 175.324 9.074 176.62 9.458C177.916 9.83 178.978 10.352 179.806 11.024C180.634 11.696 181.24 12.5 181.624 13.436C182.008 14.36 182.2 15.38 182.2 16.496C182.2 17.36 182.074 18.182 181.822 18.962C181.582 19.73 181.228 20.432 180.76 21.068C180.292 21.704 179.716 22.268 179.032 22.76C178.348 23.252 177.568 23.648 176.692 23.948C177.04 24.14 177.364 24.374 177.664 24.65C177.964 24.914 178.234 25.232 178.474 25.604L184.558 35ZM197.618 24.956V35H192.218V24.956L182.732 8.882H187.484C187.952 8.882 188.324 8.996 188.6 9.224C188.888 9.44 189.116 9.722 189.284 10.07L193.568 18.296C193.856 18.848 194.114 19.364 194.342 19.844C194.582 20.324 194.792 20.804 194.972 21.284C195.14 20.804 195.332 20.324 195.548 19.844C195.776 19.352 196.028 18.836 196.304 18.296L200.552 10.07C200.696 9.782 200.912 9.512 201.2 9.26C201.488 9.008 201.86 8.882 202.316 8.882H207.104L197.618 24.956ZM232.101 30.608V35H216.603V25.694L213.417 27.278V23.588C213.417 23.156 213.615 22.85 214.011 22.67L216.603 21.32V8.882H222.003V18.908L228.267 15.794V19.394C228.267 19.91 228.045 20.252 227.601 20.42L222.003 23.318V30.608H232.101ZM249.169 25.082L246.343 17.09C246.175 16.67 245.995 16.178 245.803 15.614C245.623 15.05 245.449 14.438 245.281 13.778C245.113 14.45 244.933 15.074 244.741 15.65C244.561 16.214 244.387 16.706 244.219 17.126L241.411 25.082H249.169ZM258.241 35H254.047C253.579 35 253.195 34.892 252.895 34.676C252.607 34.448 252.391 34.16 252.247 33.812L250.483 28.826H240.079L238.315 33.812C238.195 34.112 237.985 34.388 237.685 34.64C237.385 34.88 237.007 35 236.551 35H232.321L242.527 8.882H248.053L258.241 35ZM269.478 21.878C271.17 21.878 272.406 21.47 273.186 20.654C273.978 19.838 274.374 18.722 274.374 17.306C274.374 16.658 274.272 16.07 274.068 15.542C273.876 15.002 273.576 14.546 273.168 14.174C272.772 13.79 272.268 13.496 271.656 13.292C271.044 13.088 270.318 12.986 269.478 12.986H266.058V21.878H269.478ZM269.478 8.882C271.266 8.882 272.808 9.092 274.104 9.512C275.412 9.932 276.486 10.52 277.326 11.276C278.166 12.02 278.784 12.908 279.18 13.94C279.588 14.972 279.792 16.094 279.792 17.306C279.792 18.59 279.582 19.766 279.162 20.834C278.742 21.902 278.106 22.82 277.254 23.588C276.402 24.356 275.328 24.956 274.032 25.388C272.736 25.808 271.218 26.018 269.478 26.018H266.058V35H260.658V8.882H269.478ZM294.333 24.956V35H288.933V24.956L279.447 8.882H284.199C284.667 8.882 285.039 8.996 285.315 9.224C285.603 9.44 285.831 9.722 285.999 10.07L290.283 18.296C290.571 18.848 290.829 19.364 291.057 19.844C291.297 20.324 291.507 20.804 291.687 21.284C291.855 20.804 292.047 20.324 292.263 19.844C292.491 19.352 292.743 18.836 293.019 18.296L297.267 10.07C297.411 9.782 297.627 9.512 297.915 9.26C298.203 9.008 298.575 8.882 299.031 8.882H303.819L294.333 24.956Z" fill="#EEFFCB"/>
<g clip-path="url(#clip0)">
<path d="M18.9646 9.06325C18.4754 9.99 18.718 11.3543 19.5771 12.4918C20.2573 13.3947 21.4505 13.9356 22.1983 13.6811C22.6159 13.5419 22.9898 13.1441 23.1489 12.6828C23.308 12.2134 23.304 11.4696 23.137 10.9366C22.6278 9.32179 21.3869 8.22401 20.1459 8.28764C19.601 8.31548 19.2271 8.56209 18.9646 9.06325Z" fill="#EEFFCB"/>
<path d="M24.1751 7.62349C23.7455 8.45876 23.6898 9.65996 24.0359 10.6742C24.195 11.1436 24.3939 11.4538 24.7797 11.8396C25.1058 12.1658 25.1774 12.2135 25.5354 12.3328C26.2394 12.5754 26.6411 12.4521 27.202 11.8197C27.4883 11.5015 27.548 11.3941 27.7111 10.9367C27.8622 10.5072 27.8901 10.2963 27.8861 9.73552C27.8861 9.03549 27.7827 8.5741 27.4685 7.87804C27.2736 7.4445 26.7764 6.9314 26.3548 6.72457C25.957 6.53365 25.3405 6.52968 25.0183 6.72457C24.6882 6.91947 24.3541 7.27744 24.1751 7.62349Z" fill="#EEFFCB"/>
<path d="M17.0674 14.771C16.8009 15.3318 16.9401 16.2188 17.4214 17.0501C17.6322 17.412 18.2487 18.0524 18.5947 18.2632C19.2589 18.6649 20.2374 18.824 20.7306 18.6013C21.2357 18.3746 21.5699 17.7302 21.5301 17.062C21.4824 16.2904 21.1204 15.5386 20.5039 14.9221C19.4499 13.8681 18.0975 13.6215 17.3856 14.3494C17.2662 14.4687 17.123 14.6596 17.0674 14.771Z" fill="#EEFFCB"/>
<path d="M23.0137 16.5171C22.5483 17.1495 22.1744 18.0882 21.9597 19.186C21.717 20.4071 21.7329 21.7753 21.9875 22.2526C22.3892 22.9964 23.1609 23.3146 23.9365 23.0561C24.3422 22.9209 24.7518 22.6782 25.4161 22.181C26.1002 21.6719 26.486 21.4293 26.9037 21.2503C27.5878 20.9639 28.0054 20.9281 29.2981 21.0435C29.851 21.0952 30.4197 21.1151 30.559 21.0872C31.3545 20.9441 31.9789 20.3673 32.0028 19.7468C32.0306 18.9871 31.3982 18.0047 30.2288 17.0103C28.96 15.9245 28.2202 15.4631 27.198 15.1091C26.4423 14.8466 25.782 14.8227 25.0979 15.0375C24.3382 15.2722 23.4751 15.8887 23.0137 16.5171Z" fill="#EEFFCB"/>
<path d="M28.8606 11.0123C28.5424 11.5373 28.3873 12.1379 28.3912 12.8737C28.3952 13.7846 28.5662 14.3215 29.0038 14.8147C29.3975 15.2562 29.672 15.4034 30.1294 15.4312C30.4078 15.4472 30.5629 15.4114 30.7976 15.296C31.9948 14.6875 32.5517 12.9294 32.0346 11.3941C31.8715 10.9128 31.8516 10.877 31.4857 10.5111C31.1357 10.1611 31.0721 10.1213 30.7698 10.0338C30.5828 9.9821 30.3322 9.96221 30.197 9.98608C29.7038 10.0895 29.1867 10.4872 28.8606 11.0123Z" fill="#EEFFCB"/>
<path d="M38.3986 23.7481C38.1321 24.1578 38.0605 24.4362 38.0645 25.005C38.0645 25.5777 38.2633 26.2698 38.5975 26.8585C38.86 27.3278 39.5878 28.0557 39.9896 28.2506C40.5782 28.5449 41.2027 28.6364 41.5885 28.4892C41.9664 28.35 42.3124 27.9642 42.4715 27.5187C43.0045 26.0312 41.8828 23.8038 40.3237 23.2469C39.4606 22.9327 38.8202 23.1037 38.3986 23.7481Z" fill="#EEFFCB"/>
<path d="M43.6728 22.1811C42.9648 23.1993 42.9687 24.9852 43.6767 26.1307C43.9512 26.5722 44.4165 26.9898 44.8183 27.1449C45.2518 27.316 45.7768 27.2762 46.1268 27.0455C47.2684 26.3017 47.5826 24.3886 46.8309 22.7538C46.4968 22.014 45.8365 21.481 45.1484 21.3895C44.6711 21.3259 44.0228 21.6719 43.6728 22.1811Z" fill="#EEFFCB"/>
<path d="M36.4695 29.4558C35.9484 30.478 36.6008 32.1804 37.8218 33.0037C38.5139 33.4651 39.389 33.656 39.9617 33.4571C40.1845 33.3776 40.272 33.314 40.4748 33.0793C40.7691 32.7372 40.8805 32.4349 40.8646 31.9735C40.8527 31.2059 40.5583 30.5218 39.9617 29.8695C39.3691 29.2132 38.673 28.8353 37.8894 28.7438C37.4122 28.6881 36.6684 29.058 36.4695 29.4558Z" fill="#EEFFCB"/>
<path d="M26.2236 43.7111C25.8776 44.3356 25.8298 45.0595 26.0884 45.8589C26.5219 47.2232 27.4884 48.1977 28.6379 48.4244C29.2266 48.5437 29.5368 48.4483 29.9505 48.0346C30.221 47.7642 30.2806 47.6647 30.3721 47.3823C30.8414 45.8868 29.7317 43.7032 28.2203 43.1543C27.3492 42.84 26.5895 43.0508 26.2236 43.7111Z" fill="#EEFFCB"/>
<path d="M31.4499 42.2315C30.8454 43.2497 30.8772 44.8964 31.5215 45.9862C31.7999 46.4555 32.0585 46.722 32.4363 46.9328C32.7983 47.1357 33.1721 47.2073 33.546 47.1436C33.8046 47.0999 33.8722 47.0561 34.2023 46.7498C34.4887 46.4873 34.612 46.3322 34.7592 46.0578C35.2404 45.1549 35.2365 43.8861 34.7512 42.7565C34.5881 42.3786 34.5086 42.2593 34.2023 41.953C33.7688 41.5115 33.4307 41.3325 32.9614 41.3007C32.7744 41.2888 32.5199 41.3286 32.3886 41.3803C32.0784 41.5155 31.6369 41.9093 31.4499 42.2315Z" fill="#EEFFCB"/>
<path d="M24.2904 49.4626C23.9165 50.2899 24.3063 51.5945 25.1893 52.4775C25.8138 53.102 26.5337 53.4321 27.2854 53.4361C27.7826 53.44 28.1008 53.3048 28.3872 52.9548C28.6576 52.6366 28.7571 52.2826 28.7292 51.7536C28.6895 51.0058 28.3355 50.278 27.7031 49.6455C27.0866 49.029 26.3786 48.687 25.6666 48.6591C25.1137 48.6313 24.5052 48.9932 24.2904 49.4626Z" fill="#EEFFCB"/>
<path d="M42.1772 31.5837C41.5528 32.5423 41.1272 34.2566 41.1351 35.7521C41.1391 36.6788 41.2266 37.0129 41.5647 37.3988C41.9982 37.8959 42.5153 38.071 43.108 37.9238C43.5892 37.8005 43.983 37.5817 44.7705 36.9931C46.2621 35.8674 46.8229 35.7043 48.6367 35.8634C49.6907 35.9549 49.9094 35.943 50.2913 35.7998C51.3652 35.3941 51.6237 34.4992 50.9873 33.3855C50.7487 32.9718 50.1123 32.2956 49.3964 31.6911C48.223 30.7007 47.5031 30.2592 46.5206 29.9211C45.574 29.5949 44.6075 29.6785 43.7125 30.1597C43.2631 30.4024 42.4676 31.1422 42.1772 31.5837Z" fill="#EEFFCB"/>
<path d="M48.1513 25.9039C47.7694 26.6675 47.6342 27.463 47.7535 28.2665C47.9842 29.8098 49.1496 30.6729 50.2076 30.0763C51.0668 29.591 51.552 28.6205 51.552 27.3875C51.552 26.8784 51.5123 26.6317 51.373 26.2141C51.202 25.701 51.1861 25.6772 50.8321 25.3311C50.2753 24.7822 49.782 24.6549 49.2172 24.9095C48.8911 25.0606 48.3024 25.6095 48.1513 25.9039Z" fill="#EEFFCB"/>
<path d="M29.9504 51.6541C29.66 52.1433 29.2424 53.4201 29.1072 54.2315C28.9759 55.015 28.9719 56.2838 29.0952 56.7174C29.3378 57.5328 30.185 58.03 31.0044 57.839C31.3902 57.7476 31.8277 57.493 32.6948 56.8646C34.2421 55.7389 34.6995 55.6077 36.4854 55.7708C37.8735 55.8941 38.3031 55.8066 38.8162 55.2855C39.6355 54.4502 39.1423 53.1934 37.4121 51.7177C34.9302 49.5937 33.2 49.1284 31.5016 50.1267C30.9249 50.4648 30.2805 51.1012 29.9504 51.6541Z" fill="#EEFFCB"/>
<path d="M36.1712 45.6003C35.6382 46.3561 35.4552 47.43 35.682 48.4761C35.7854 48.9613 35.9882 49.3392 36.3223 49.6733C36.9826 50.3335 37.7025 50.3455 38.4662 49.7091C39.2458 49.0647 39.6197 47.6567 39.3373 46.4515C39.0867 45.3736 38.3866 44.6974 37.5514 44.7134C37.0979 44.7213 36.5252 45.0872 36.1712 45.6003Z" fill="#EEFFCB"/>
<path d="M48.0002 57.6204C47.7297 58.2409 47.7377 58.9012 48.024 59.7126C48.5252 61.1285 49.611 62.0871 50.8043 62.1667C50.9912 62.1786 51.2458 62.1388 51.377 62.0871C52.7771 61.4905 52.6697 59.1159 51.1782 57.5926C50.6293 57.0357 50.148 56.7851 49.4758 56.7096C48.8792 56.6459 48.2587 57.0278 48.0002 57.6204Z" fill="#EEFFCB"/>
<path d="M46.2501 63.0457C46.0632 63.344 46.0234 63.5509 46.0513 64.0003C46.095 64.7918 46.445 65.5476 47.0615 66.1641C47.6621 66.7726 48.3383 67.0988 49.0622 67.1385C49.5912 67.1664 49.8736 67.0669 50.1838 66.7567C51.2975 65.6271 50.1679 63.1213 48.2667 62.5008C48.0639 62.4332 47.7815 62.3656 47.6343 62.3536C47.157 62.298 46.5087 62.6201 46.2501 63.0457Z" fill="#EEFFCB"/>
<path d="M53.2226 56.1447C52.9084 56.8248 52.8209 57.6999 52.98 58.5351C53.3419 60.4244 54.9727 61.4665 56.0705 60.5199C57.0489 59.6767 57.2876 57.9504 56.6353 56.4549C56.1779 55.4088 55.1716 54.8003 54.3244 55.0588C54.0221 55.1543 53.3936 55.7748 53.2226 56.1447Z" fill="#EEFFCB"/>
<path d="M52.0572 65.0263C51.6118 65.6707 51.2737 66.5576 51.043 67.6952C50.8839 68.4748 50.8521 70.0578 50.9913 70.4675C51.1026 70.8016 51.4805 71.259 51.7709 71.4062C52.5465 71.8 53.1789 71.6051 54.5909 70.559C56.0586 69.4731 56.5796 69.318 58.3655 69.4732C59.4355 69.5646 59.6304 69.5607 60.0401 69.4214C60.4617 69.2783 60.935 68.8447 61.0344 68.5066C61.3288 67.5282 60.4458 66.2395 58.465 64.7439C57.2081 63.7893 56.158 63.3518 55.1239 63.3438C54.5153 63.3399 53.9267 63.499 53.3778 63.8251C53.0198 64.0319 52.268 64.7121 52.0572 65.0263Z" fill="#EEFFCB"/>
<path d="M57.9041 59.5374C57.4825 60.2772 57.3592 61.2915 57.5779 62.2501C57.7888 63.1927 58.5882 63.9206 59.3678 63.8808C60.1434 63.8371 60.9668 62.9581 61.2372 61.8762C61.4242 61.1085 61.3009 60.0227 60.9548 59.3982C60.4855 58.547 59.6184 58.1891 58.8985 58.559C58.5604 58.73 58.1189 59.1715 57.9041 59.5374Z" fill="#EEFFCB"/>
</g>
<path d="M87.177 59.475V64.74C86.517 65.226 85.812 65.583 85.062 65.811C84.318 66.033 83.52 66.144 82.668 66.144C81.606 66.144 80.643 65.979 79.779 65.649C78.921 65.319 78.186 64.86 77.574 64.272C76.968 63.684 76.5 62.982 76.17 62.166C75.84 61.35 75.675 60.459 75.675 59.493C75.675 58.515 75.834 57.618 76.152 56.802C76.47 55.986 76.92 55.284 77.502 54.696C78.09 54.108 78.801 53.652 79.635 53.328C80.469 53.004 81.405 52.842 82.443 52.842C82.971 52.842 83.463 52.884 83.919 52.968C84.381 53.052 84.807 53.169 85.197 53.319C85.593 53.463 85.953 53.64 86.277 53.85C86.601 54.06 86.898 54.291 87.168 54.543L86.475 55.641C86.367 55.815 86.226 55.923 86.052 55.965C85.878 56.001 85.689 55.956 85.485 55.83C85.287 55.716 85.089 55.602 84.891 55.488C84.693 55.374 84.471 55.275 84.225 55.191C83.985 55.107 83.712 55.038 83.406 54.984C83.106 54.93 82.758 54.903 82.362 54.903C81.72 54.903 81.138 55.011 80.616 55.227C80.1 55.443 79.659 55.752 79.293 56.154C78.927 56.556 78.645 57.039 78.447 57.603C78.249 58.167 78.15 58.797 78.15 59.493C78.15 60.237 78.255 60.903 78.465 61.491C78.681 62.073 78.981 62.568 79.365 62.976C79.755 63.378 80.223 63.687 80.769 63.903C81.315 64.113 81.924 64.218 82.596 64.218C83.076 64.218 83.505 64.167 83.883 64.065C84.261 63.963 84.63 63.825 84.99 63.651V61.293H83.352C83.196 61.293 83.073 61.251 82.983 61.167C82.899 61.077 82.857 60.969 82.857 60.843V59.475H87.177ZM96.2273 61.086L94.6433 56.757C94.5653 56.565 94.4843 56.337 94.4003 56.073C94.3163 55.809 94.2323 55.524 94.1483 55.218C94.0703 55.524 93.9893 55.812 93.9053 56.082C93.8213 56.346 93.7403 56.577 93.6623 56.775L92.0873 61.086H96.2273ZM100.502 66H98.6303C98.4203 66 98.2493 65.949 98.1173 65.847C97.9853 65.739 97.8863 65.607 97.8203 65.451L96.8483 62.796H91.4573L90.4853 65.451C90.4373 65.589 90.3443 65.715 90.2063 65.829C90.0683 65.943 89.8973 66 89.6933 66H87.8033L92.9243 52.986H95.3903L100.502 66ZM106.718 64.11C107.168 64.11 107.546 64.056 107.852 63.948C108.158 63.84 108.401 63.696 108.581 63.516C108.767 63.336 108.899 63.126 108.977 62.886C109.061 62.646 109.103 62.391 109.103 62.121C109.103 61.839 109.058 61.587 108.968 61.365C108.878 61.137 108.737 60.945 108.545 60.789C108.353 60.627 108.104 60.504 107.798 60.42C107.498 60.336 107.135 60.294 106.709 60.294H104.27V64.11H106.718ZM104.27 54.858V58.62H106.196C107.024 58.62 107.648 58.47 108.068 58.17C108.494 57.87 108.707 57.393 108.707 56.739C108.707 56.061 108.515 55.578 108.131 55.29C107.747 55.002 107.147 54.858 106.331 54.858H104.27ZM106.331 52.986C107.183 52.986 107.912 53.067 108.518 53.229C109.124 53.391 109.619 53.622 110.003 53.922C110.393 54.222 110.678 54.585 110.858 55.011C111.038 55.437 111.128 55.917 111.128 56.451C111.128 56.757 111.083 57.051 110.993 57.333C110.903 57.609 110.762 57.87 110.57 58.116C110.384 58.356 110.144 58.575 109.85 58.773C109.562 58.971 109.217 59.139 108.815 59.277C110.603 59.679 111.497 60.645 111.497 62.175C111.497 62.727 111.392 63.237 111.182 63.705C110.972 64.173 110.666 64.578 110.264 64.92C109.862 65.256 109.367 65.52 108.779 65.712C108.191 65.904 107.519 66 106.763 66H101.849V52.986H106.331ZM116.127 66H113.697V52.986H116.127V66ZM130.012 52.986V66H128.77C128.578 66 128.416 65.97 128.284 65.91C128.158 65.844 128.035 65.736 127.915 65.586L121.12 56.91C121.156 57.306 121.174 57.672 121.174 58.008V66H119.041V52.986H120.31C120.412 52.986 120.499 52.992 120.571 53.004C120.649 53.01 120.715 53.028 120.769 53.058C120.829 53.082 120.886 53.121 120.94 53.175C120.994 53.223 121.054 53.289 121.12 53.373L127.942 62.085C127.924 61.875 127.909 61.668 127.897 61.464C127.885 61.26 127.879 61.071 127.879 60.897V52.986H130.012ZM135.34 54.912V58.521H139.894V60.384H135.34V64.065H141.118V66H132.91V52.986H141.118V54.912H135.34ZM152.353 54.975H148.429V66H146.008V54.975H142.084V52.986H152.353V54.975ZM175.081 52.986L171.04 66H168.853L166.009 57.108C165.931 56.892 165.859 56.628 165.793 56.316C165.757 56.466 165.721 56.607 165.685 56.739C165.649 56.871 165.61 56.994 165.568 57.108L162.697 66H160.501L156.469 52.986H158.494C158.704 52.986 158.878 53.037 159.016 53.139C159.16 53.235 159.256 53.367 159.304 53.535L161.518 61.32C161.566 61.512 161.611 61.722 161.653 61.95C161.701 62.172 161.749 62.406 161.797 62.652C161.845 62.4 161.896 62.163 161.95 61.941C162.01 61.719 162.073 61.512 162.139 61.32L164.695 53.535C164.743 53.397 164.836 53.271 164.974 53.157C165.118 53.043 165.292 52.986 165.496 52.986H166.207C166.417 52.986 166.588 53.037 166.72 53.139C166.852 53.241 166.951 53.373 167.017 53.535L169.564 61.32C169.69 61.692 169.804 62.121 169.906 62.607C169.984 62.133 170.071 61.704 170.167 61.32L172.381 53.535C172.417 53.385 172.507 53.256 172.651 53.148C172.801 53.04 172.978 52.986 173.182 52.986H175.081ZM179.109 54.912V58.521H183.663V60.384H179.109V64.065H184.887V66H176.679V52.986H184.887V54.912H179.109ZM196.123 54.975H192.199V66H189.778V54.975H185.854V52.986H196.123V54.975ZM200.256 54.912V58.521H204.81V60.384H200.256V64.065H206.034V66H197.826V52.986H206.034V54.912H200.256ZM212.112 59.178C212.568 59.178 212.964 59.121 213.3 59.007C213.642 58.893 213.921 58.737 214.137 58.539C214.359 58.335 214.524 58.095 214.632 57.819C214.74 57.543 214.794 57.24 214.794 56.91C214.794 56.25 214.575 55.743 214.137 55.389C213.705 55.035 213.042 54.858 212.148 54.858H210.6V59.178H212.112ZM218.34 66H216.153C215.739 66 215.439 65.838 215.253 65.514L212.517 61.347C212.415 61.191 212.301 61.08 212.175 61.014C212.055 60.948 211.875 60.915 211.635 60.915H210.6V66H208.179V52.986H212.148C213.03 52.986 213.786 53.079 214.416 53.265C215.052 53.445 215.571 53.7 215.973 54.03C216.381 54.36 216.681 54.756 216.873 55.218C217.065 55.674 217.161 56.178 217.161 56.73C217.161 57.168 217.095 57.582 216.963 57.972C216.837 58.362 216.651 58.716 216.405 59.034C216.165 59.352 215.865 59.631 215.505 59.871C215.151 60.111 214.746 60.3 214.29 60.438C214.446 60.528 214.59 60.636 214.722 60.762C214.854 60.882 214.974 61.026 215.082 61.194L218.34 66ZM224.737 60.96V66H222.325V60.96L217.582 52.986H219.715C219.925 52.986 220.09 53.037 220.21 53.139C220.336 53.241 220.441 53.37 220.525 53.526L222.901 57.873C223.039 58.131 223.159 58.374 223.261 58.602C223.369 58.83 223.465 59.058 223.549 59.286C223.627 59.058 223.717 58.83 223.819 58.602C223.921 58.374 224.038 58.131 224.17 57.873L226.537 53.526C226.603 53.394 226.702 53.271 226.834 53.157C226.966 53.043 227.134 52.986 227.338 52.986H229.48L224.737 60.96ZM241.791 52.986V66H240.549C240.357 66 240.195 65.97 240.063 65.91C239.937 65.844 239.814 65.736 239.694 65.586L232.899 56.91C232.935 57.306 232.953 57.672 232.953 58.008V66H230.82V52.986H232.089C232.191 52.986 232.278 52.992 232.35 53.004C232.428 53.01 232.494 53.028 232.548 53.058C232.608 53.082 232.665 53.121 232.719 53.175C232.773 53.223 232.833 53.289 232.899 53.373L239.721 62.085C239.703 61.875 239.688 61.668 239.676 61.464C239.664 61.26 239.658 61.071 239.658 60.897V52.986H241.791ZM251.565 61.086L249.981 56.757C249.903 56.565 249.822 56.337 249.738 56.073C249.654 55.809 249.57 55.524 249.486 55.218C249.408 55.524 249.327 55.812 249.243 56.082C249.159 56.346 249.078 56.577 249 56.775L247.425 61.086H251.565ZM255.84 66H253.968C253.758 66 253.587 65.949 253.455 65.847C253.323 65.739 253.224 65.607 253.158 65.451L252.186 62.796H246.795L245.823 65.451C245.775 65.589 245.682 65.715 245.544 65.829C245.406 65.943 245.235 66 245.031 66H243.141L248.262 52.986H250.728L255.84 66ZM261.12 59.178C261.576 59.178 261.972 59.121 262.308 59.007C262.65 58.893 262.929 58.737 263.145 58.539C263.367 58.335 263.532 58.095 263.64 57.819C263.748 57.543 263.802 57.24 263.802 56.91C263.802 56.25 263.583 55.743 263.145 55.389C262.713 55.035 262.05 54.858 261.156 54.858H259.608V59.178H261.12ZM267.348 66H265.161C264.747 66 264.447 65.838 264.261 65.514L261.525 61.347C261.423 61.191 261.309 61.08 261.183 61.014C261.063 60.948 260.883 60.915 260.643 60.915H259.608V66H257.187V52.986H261.156C262.038 52.986 262.794 53.079 263.424 53.265C264.06 53.445 264.579 53.7 264.981 54.03C265.389 54.36 265.689 54.756 265.881 55.218C266.073 55.674 266.169 56.178 266.169 56.73C266.169 57.168 266.103 57.582 265.971 57.972C265.845 58.362 265.659 58.716 265.413 59.034C265.173 59.352 264.873 59.631 264.513 59.871C264.159 60.111 263.754 60.3 263.298 60.438C263.454 60.528 263.598 60.636 263.73 60.762C263.862 60.882 263.982 61.026 264.09 61.194L267.348 66ZM273.745 60.96V66H271.333V60.96L266.59 52.986H268.723C268.933 52.986 269.098 53.037 269.218 53.139C269.344 53.241 269.449 53.37 269.533 53.526L271.909 57.873C272.047 58.131 272.167 58.374 272.269 58.602C272.377 58.83 272.473 59.058 272.557 59.286C272.635 59.058 272.725 58.83 272.827 58.602C272.929 58.374 273.046 58.131 273.178 57.873L275.545 53.526C275.611 53.394 275.71 53.271 275.842 53.157C275.974 53.043 276.142 52.986 276.346 52.986H278.488L273.745 60.96ZM283.433 61.374C283.433 62.106 283.343 62.766 283.163 63.354C282.983 63.942 282.713 64.443 282.353 64.857C281.999 65.271 281.555 65.589 281.021 65.811C280.487 66.033 279.866 66.144 279.158 66.144C278.834 66.144 278.516 66.123 278.204 66.081C277.892 66.045 277.565 65.985 277.223 65.901C277.241 65.661 277.262 65.421 277.286 65.181C277.31 64.941 277.331 64.701 277.349 64.461C277.367 64.329 277.418 64.224 277.502 64.146C277.592 64.062 277.718 64.02 277.88 64.02C277.982 64.02 278.114 64.041 278.276 64.083C278.444 64.125 278.654 64.146 278.906 64.146C279.248 64.146 279.551 64.098 279.815 64.002C280.079 63.9 280.298 63.741 280.472 63.525C280.652 63.309 280.787 63.03 280.877 62.688C280.967 62.34 281.012 61.92 281.012 61.428V52.986H283.433V61.374ZM297.18 52.986V66H295.938C295.746 66 295.584 65.97 295.452 65.91C295.326 65.844 295.203 65.736 295.083 65.586L288.288 56.91C288.324 57.306 288.342 57.672 288.342 58.008V66H286.209V52.986H287.478C287.58 52.986 287.667 52.992 287.739 53.004C287.817 53.01 287.883 53.028 287.937 53.058C287.997 53.082 288.054 53.121 288.108 53.175C288.162 53.223 288.222 53.289 288.288 53.373L295.11 62.085C295.092 61.875 295.077 61.668 295.065 61.464C295.053 61.26 295.047 61.071 295.047 60.897V52.986H297.18ZM305.667 60.96V66H303.255V60.96L298.512 52.986H300.645C300.855 52.986 301.02 53.037 301.14 53.139C301.266 53.241 301.371 53.37 301.455 53.526L303.831 57.873C303.969 58.131 304.089 58.374 304.191 58.602C304.299 58.83 304.395 59.058 304.479 59.286C304.557 59.058 304.647 58.83 304.749 58.602C304.851 58.374 304.968 58.131 305.1 57.873L307.467 53.526C307.533 53.394 307.632 53.271 307.764 53.157C307.896 53.043 308.064 52.986 308.268 52.986H310.41L305.667 60.96Z" fill="#EEFFCB"/>
<defs>
<clipPath id="clip0">
<rect width="37.8" height="72" fill="white" transform="translate(0 27.9086) rotate(-45)"/>
</clipPath>
</defs>
</svg>
